<svg width="60" height="51" viewBox="0 0 60 51" fill="none" xmlns="http://www.w3.org/2000/svg">
<path d="M43.7867 17.951L42.7677 21.776L46.717 22.0439C54.1358 22.5472 60 28.7287 60 36.277C60 44.1561 53.6128 50.5433 45.7337 50.5433C40.1185 50.5433 35.2548 47.2996 32.9255 42.569L30 36.6276L27.0745 42.569C24.7452 47.2996 19.8815 50.5433 14.2663 50.5433C6.38724 50.5433 0 44.1561 0 36.277C0 28.7287 5.86425 22.5472 13.283 22.0439L17.2323 21.776L16.2133 17.951C15.9011 16.7792 15.7337 15.5448 15.7337 14.2663C15.7337 6.38724 22.1209 0 30 0C37.8791 0 44.2663 6.38724 44.2663 14.2663C44.2663 15.5448 44.099 16.7792 43.7867 17.951Z" fill="#111111"/>
</svg>
