<svg width="240" height="336" viewBox="0 0 240 336" fill="none" xmlns="http://www.w3.org/2000/svg">
<rect width="240" height="336" rx="11" fill="white"/>
<rect width="240" height="336" rx="11" fill="white"/>
<path d="M159.495 147.448L156.574 158.411L167.893 159.179C189.155 160.621 205.963 178.338 205.963 199.972C205.963 222.553 187.657 240.859 165.075 240.859C148.981 240.859 135.042 231.563 128.366 218.005L119.981 200.976L111.597 218.005C104.921 231.563 90.9813 240.859 74.8879 240.859C52.3061 240.859 34 222.553 34 199.972C34 178.338 50.8072 160.621 72.0698 159.179L83.3886 158.411L80.4679 147.448C79.5731 144.09 79.0935 140.552 79.0935 136.888C79.0935 114.306 97.3996 96 119.981 96C142.563 96 160.869 114.306 160.869 136.888C160.869 140.552 160.39 144.09 159.495 147.448Z" fill="#2C2C2C"/>
</svg>
